#!OML:ASF H:\ManfredETheater\Project 1\Capture day 1\Session 1\subject.ASF
:FULLY-SPECIFIED
:DEGREES
135
root -2.33618 18.0972 -11.3969 -194.562 -20.0001 -175.773
lowerback 16.5694 2.04547 2.27414
upperback 1.28207 3.12251 2.94093
thorax -7.96407 1.37175 1.16032
lowerneck -18.6755 -0.328868 -2.36681
upperneck 15.9417 0.240504 -0.507375
head 8.00804 -0.112376 0.242402
rclavicle 7.34261e-014 -4.65156e-014
rhumerus -65.7123 28.7005 -40.7885
rradius 103.362
rwrist -2.03156
rhand -18.1888 9.72974
rfingers 7.12502
rthumb 8.08816 -20.0955
lclavicle 7.34261e-014 -4.65156e-014
lhumerus -78.7913 -16.0929 47.4907
lradius 37.2866
lwrist -2.28168
lhand -24.9649 -4.9461
lfingers 7.12502
lthumb 1.54548 25.028
rfemur -32.252 -15.0671 22.292
rtibia 68.9296
rfoot -13.0559 -3.60491
rtoes -29.4106
lfemur -26.6926 -9.66463 -11.387
ltibia 40.7134
lfoot 12.138 0.0814409
ltoes -13.9479
136
root -2.51255 17.7444 -11.7713 -194.362 -20.0431 -176.044
lowerback 16.8314 1.95519 2.04109
upperback 1.18967 2.97292 2.82005
thorax -8.21409 1.30674 1.18844
lowerneck -18.6893 -0.24902 -2.18068
upperneck 15.6663 0.292915 -0.449612
head 7.91745 -0.0635731 0.238055
rclavicle -2.38293e-014 3.73715e-014
rhumerus -66.6409 27.931 -41.6369
rradius 102.606
rwrist -1.72696
rhand -18.3967 9.78549
rfingers 7.12502
rthumb 7.88743 -20.0474
lclavicle -2.38293e-014 3.73715e-014
lhumerus -78.7968 -14.9862 48.2237
lradius 37.4467
lwrist -2.86196
lhand -25.0014 -5.33342
lfingers 7.12502
lthumb 1.51017 24.641
rfemur -33.7695 -14.6576 22.5767
rtibia 66.0943
rfoot -13.5137 -2.96929
rtoes -30.336
lfemur -26.6067 -9.28627 -12.1802
ltibia 43.2938
lfoot 7.95549 -1.01409
ltoes -13.6705
137
root -2.67439 17.4007 -12.132 -194.058 -20.3067 -176.498
lowerback 17.2031 1.84518 1.56354
upperback 1.09451 2.74859 2.62736
thorax -8.53512 1.21525 1.29395
lowerneck -18.6933 -0.18497 -1.98579
upperneck 15.2397 0.320277 -0.379992
head 7.77529 -0.0228031 0.233107
rclavicle 1.38031e-014 1.11319e-014
rhumerus -67.4212 26.8449 -42.7244
rradius 101.74
rwrist -1.36847
rhand -18.6783 9.81565
rfingers 7.12502
rthumb 7.61571 -20.0272
lclavicle 1.38031e-014 1.11319e-014
lhumerus -78.4858 -13.5752 48.7304
lradius 37.4416
lwrist -3.49053
lhand -25.0935 -5.59556
lfingers 7.12502
lthumb 1.42129 24.3795
rfemur -35.2236 -14.1983 22.5997
rtibia 63.1413
rfoot -13.7776 -2.31385
rtoes -31.3168
lfemur -26.8859 -8.93595 -13.182
ltibia 46.2906
lfoot 3.13358 -1.71531
ltoes -13.1853
138
root -2.81529 17.0887 -12.4709 -193.632 -20.8456 -177.112
lowerback 17.6887 1.70536 0.854467
upperback 0.994612 2.43067 2.35955
thorax -8.92768 1.08897 1.47315
lowerneck -18.6879 -0.144562 -1.80425
upperneck 14.6564 0.311998 -0.268045
head 7.58034 0.00570582 0.239874
rclavicle -4.77456e-014 3.1408e-014
rhumerus -68.0363 25.3718 -44.0746
rradius 100.735
rwrist -0.986929
rhand -19.0601 9.84328
rfingers 7.12502
rthumb 7.24715 -20.0126
lclavicle -4.77456e-014 3.1408e-014
lhumerus -77.8195 -11.8576 49.0494
lradius 37.2497
lwrist -4.09176
lhand -25.2644 -5.68043
lfingers 7.12502
lthumb 1.2562 24.2956
rfemur -36.5461 -13.6669 22.3544
rtibia 60.0465
rfoot -13.8904 -1.75322
rtoes -32.2563
lfemur -27.5534 -8.69085 -14.3428
ltibia 49.6612
lfoot -1.83906 -1.93105
ltoes -12.4594
139
root -2.9389 16.7748 -12.7992 -193.074 -21.6411 -177.846
lowerback 18.2283 1.53757 -0.0259433
upperback 0.907903 2.02211 2.02493
thorax -9.33249 0.927991 1.70469
lowerneck -18.7168 -0.138067 -1.65669
upperneck 13.944 0.255428 -0.0851776
head 7.3498 0.015821 0.269514
rclavicle -2.43138e-014 1.98785e-015
rhumerus -68.4312 23.4485 -45.6914
rradius 99.5411
rwrist -0.601943
rhand -19.5978 9.88546
rfingers 7.12502
rthumb 6.72805 -19.9876
lclavicle -2.43138e-014 1.98785e-015
lhumerus -76.7538 -9.81372 49.2212
lradius 36.8301
lwrist -4.63435
lhand -25.5381 -5.55839
lfingers 7.12502
lthumb 0.991862 24.419
rfemur -37.8979 -12.9886 21.8446
rtibia 57.06
rfoot -13.8826 -1.39737
rtoes -33.0616
lfemur -28.7479 -8.57473 -15.5739
ltibia 53.4751
lfoot -6.5062 -1.79151
ltoes -11.5529
140
root -3.0443 16.4764 -13.1155 -192.42 -22.664 -178.626
lowerback 18.7824 1.33793 -0.984709
upperback 0.856702 1.52996 1.64794
thorax -9.69664 0.731325 1.96344
lowerneck -18.7784 -0.175005 -1.58748
upperneck 13.1199 0.141745 0.210819
head 7.0897 0.00307581 0.341803
rclavicle -2.02698e-014 -1.59028e-014
rhumerus -68.5407 21.0529 -47.5664
rradius 98.0949
rwrist -0.27282
rhand -20.3451 9.94439
rfingers 7.12502
rthumb 6.00665 -19.9505
lclavicle -2.02698e-014 -1.59028e-014
lhumerus -75.2609 -7.43551 49.3083
lradius 36.1469
lwrist -5.08946
lhand -25.9079 -5.25111
lfingers 7.12502
lthumb 0.634652 24.7277
rfemur -39.18 -12.1382 21.1087
rtibia 54.2373
rfoot -13.7851 -1.30843
rtoes -33.7704
lfemur -30.351 -8.57844 -16.7769
ltibia 57.5899
lfoot -10.6143 -1.58492
ltoes -10.3834
141
root -3.13544 16.1928 -13.4244 -191.739 -23.8137 -179.365
lowerback 19.3121 1.11641 -1.90114
upperback 0.860341 0.99358 1.26118
thorax -9.9736 0.510786 2.20668
lowerneck -18.836 -0.254241 -1.60987
upperneck 12.1907 -0.0242438 0.620645
head 6.79708 -0.0327613 0.459231
rclavicle 2.44567e-014 -8.74653e-015
rhumerus -68.3077 18.2263 -49.6781
rradius 96.3458
rwrist -0.09665
rhand -21.3264 9.97974
rfingers 7.12502
rthumb 5.05916 -19.9399
lclavicle 2.44567e-014 -8.74653e-015
lhumerus -73.328 -4.72965 49.3538
lradius 35.1673
lwrist -5.47699
lhand -26.3126 -4.79576
lfingers 7.12502
lthumb 0.243802 25.1838
rfemur -40.3807 -11.0764 20.2281
rtibia 51.7854
rfoot -13.6448 -1.46726
rtoes -34.3241
lfemur -32.2292 -8.64151 -17.832
ltibia 61.9133
lfoot -13.8738 -1.63907
ltoes -8.73271
142
root -3.21656 15.9278 -13.7271 -191.172 -24.9276 -179.845
lowerback 19.8115 0.882571 -2.53868
upperback 0.920852 0.489259 0.93473
thorax -10.1602 0.291099 2.35387
lowerneck -18.8893 -0.367598 -1.72299
upperneck 11.2585 -0.224164 1.1054
head 6.50603 -0.088006 0.610948
rclavicle -1.82098e-014 -9.24349e-015
rhumerus -67.6818 15.0888 -51.9761
rradius 94.2412
rwrist -0.254094
rhand -22.5161 9.95473
rfingers 7.12502
rthumb 3.91038 -19.9891
lclavicle -1.82098e-014 -9.24349e-015
lhumerus -70.9794 -1.70712 49.394
lradius 33.8863
lwrist -5.87539
lhand -26.6416 -4.24689
lfingers 7.12502
lthumb -0.0739618 25.7328
rfemur -41.4455 -9.7361 19.4213
rtibia 49.8147
rfoot -13.2847 -2.07086
rtoes -34.7719
lfemur -34.1632 -8.64654 -18.4969
ltibia 66.2406
lfoot -16.4422 -2.06296
ltoes -7.63399
143
root -3.2948 15.6812 -14.025 -190.862 -25.8863 -179.981
lowerback 20.3111 0.651228 -2.77879
upperback 1.04133 0.0741159 0.695283
thorax -10.2787 0.0932565 2.34872
lowerneck -18.9116 -0.503364 -1.91996
upperneck 10.4204 -0.436985 1.62613
head 6.24385 -0.155152 0.785794
rclavicle 6.00858e-015 -7.85199e-015
rhumerus -66.6507 11.8067 -54.4082
rradius 91.7558
rwrist -0.967711
rhand -23.8543 9.86384
rfingers 7.12502
rthumb 2.61805 -20.0998
lclavicle 6.00858e-015 -7.85199e-015
lhumerus -68.3017 1.58938 49.4761
lradius 32.3732
lwrist -6.39351
lhand -26.8347 -3.62806
lfingers 7.12502
lthumb -0.260458 26.3515
rfemur -42.3524 -8.1607 18.8089
rtibia 48.509
rfoot -12.6202 -3.134
rtoes -35.696
lfemur -35.8941 -8.48554 -18.7044
ltibia 70.4178
lfoot -18.5609 -2.90398
ltoes -6.975
144
root -3.37354 15.4574 -14.3175 -190.95 -26.5985 -179.709
lowerback 20.8643 0.437127 -2.5808
upperback 1.21809 -0.213319 0.572477
thorax -10.3706 -0.0654954 2.18849
lowerneck -18.8768 -0.641442 -2.17044
upperneck 9.7675 -0.63305 2.117
head 6.03462 -0.222016 0.961357
rclavicle 4.51742e-014 2.85753e-015
rhumerus -65.2218 8.56637 -56.9039
rradius 88.894
rwrist -2.38241
rhand -25.2395 9.76407
rfingers 7.12502
rthumb 1.28026 -20.2118
lclavicle 4.51742e-014 2.85753e-015
lhumerus -65.4106 5.19903 49.5574
lradius 30.6856
lwrist -7.26842
lhand -26.876 -3.09275
lfingers 7.12502
lthumb -0.300285 26.8868
rfemur -43.0662 -6.47032 18.5508
rtibia 47.9964
rfoot -11.6329 -4.42125
rtoes -37.2866
lfemur -37.211 -8.09183 -18.4125
ltibia 74.3378
lfoot -20.3539 -4.05547
ltoes -6.48722
145
root -3.45547 15.2519 -14.6053 -191.452 -27.0162 -179.079
lowerback 21.4778 0.260958 -2.00541
upperback 1.43929 -0.352592 0.566049
thorax -10.4557 -0.172032 1.90019
lowerneck -18.7817 -0.771701 -2.45298
upperneck 9.34797 -0.796545 2.52195
head 5.89171 -0.282012 1.11835
rclavicle 2.1433e-014 -3.8763e-015
rhumerus -63.4243 5.51562 -59.375
rradius 85.6932
rwrist -4.49293
rhand -26.5592 9.72991
rfingers 7.12502
rthumb 0.00561467 -20.2498
lclavicle 2.1433e-014 -3.8763e-015
lhumerus -62.4562 9.04107 49.765
lradius 29.0111
lwrist -8.533
lhand -26.8435 -2.64362
lfingers 7.12502
lthumb -0.268935 27.336
rfemur -43.6393 -4.76884 18.6859
rtibia 48.3987
rfoot -10.3959 -5.45395
rtoes -39.024
lfemur -37.9618 -7.45798 -17.6818
ltibia 77.9193
lfoot -21.8958 -5.32732
ltoes -6.63931
146
root -3.54245 15.0642 -14.8867 -192.301 -27.1513 -178.225
lowerback 22.1571 0.128814 -1.1699
upperback 1.68038 -0.360002 0.648209
thorax -10.5605 -0.228422 1.52311
lowerneck -18.6136 -0.882837 -2.72914
upperneck 9.16169 -0.916605 2.7911
head 5.81112 -0.330674 1.23603
rclavicle 1.22004e-014 3.57812e-015
rhumerus -61.329 2.78215 -61.7455
rradius 82.2114
rwrist -7.01862
rhand -27.6839 9.8168
rfingers 7.12502
rthumb -1.0806 -20.1602
lclavicle 1.22004e-014 3.57812e-015
lhumerus -59.5692 12.976 50.2696
lradius 27.5478
lwrist -10.0918
lhand -26.8716 -2.29589
lfingers 7.12502
lthumb -0.296055 27.6836
rfemur -44.1327 -3.20681 19.1751
rtibia 49.7209
rfoot -9.04328 -6.06462
rtoes -40.8839
lfemur -38.2008 -6.66845 -16.6618
ltibia 81.2059
lfoot -23.2001 -6.65013
ltoes -6.95602
